<svg width="900" height="900" viewBox="0 0 900 900" fill="none" xmlns="http://www.w3.org/2000/svg">
<mask id="path-1-outside-1_2205_224" maskUnits="userSpaceOnUse" x="123" y="123" width="654" height="654" fill="black">
<rect fill="white" x="123" y="123" width="654" height="654"/>
<path d="M721.68 317.086C697.04 317.086 676.56 335.247 672.924 358.883H624.147C620.887 337.692 604.105 320.91 582.914 317.65V227.076C606.55 223.44 624.711 202.96 624.711 178.32C624.711 151.131 602.58 129 575.391 129C548.202 129 526.07 151.131 526.07 178.32C526.07 202.96 544.231 223.44 567.867 227.076V317.671C554.409 319.74 542.747 327.263 535.182 337.901L496.98 318.8C498.484 314.035 499.32 308.956 499.32 303.711C499.32 276.522 477.189 254.391 450 254.391C433.428 254.391 418.736 262.604 409.791 275.185L371.589 256.083C373.094 251.339 373.93 246.261 373.93 241.016C373.93 213.827 351.798 191.695 324.609 191.695C297.421 191.695 275.289 213.827 275.289 241.016C275.289 268.204 297.421 290.336 324.609 290.336C341.182 290.336 355.894 282.102 364.818 269.542L403.041 288.643C401.516 293.387 400.68 298.465 400.68 303.711C400.68 308.956 401.516 314.035 403.041 318.8L364.839 337.901C355.894 325.32 341.182 317.086 324.609 317.086C297.421 317.086 275.289 339.217 275.289 366.406C275.289 391.046 293.45 411.526 317.086 415.162V485.047C295.937 488.328 279.322 504.942 276.041 526.091H227.076C223.44 502.455 202.96 484.294 178.32 484.294C151.131 484.294 129 506.426 129 533.615C129 560.804 151.131 582.914 178.32 582.914C202.96 582.914 223.44 564.753 227.076 541.117H276.062C279.343 562.266 295.958 578.881 317.107 582.162V672.924C293.471 676.56 275.31 697.04 275.31 721.68C275.31 748.889 297.441 771 324.63 771C351.819 771 373.951 748.869 373.951 721.68C373.951 697.04 355.79 676.56 332.154 672.924V582.162C345.571 580.093 357.211 572.695 364.755 562.078L403.062 581.221C401.516 585.965 400.68 591.044 400.68 596.289C400.68 623.499 422.811 645.609 450 645.609C466.572 645.609 481.264 637.375 490.229 624.795L528.432 643.917C526.906 648.681 526.07 653.739 526.07 658.984C526.07 686.194 548.202 708.305 575.391 708.305C602.58 708.305 624.711 686.173 624.711 658.984C624.711 631.796 602.58 609.664 575.391 609.664C558.818 609.664 544.127 617.898 535.161 630.479L496.959 611.378C498.484 606.613 499.32 601.535 499.32 596.289C499.32 591.044 498.484 585.965 496.959 581.221L535.161 562.099C544.127 574.701 558.818 582.914 575.391 582.914C602.6 582.914 624.711 560.783 624.711 533.594C624.711 508.955 606.55 488.474 582.914 484.838V415.162C604.105 411.902 620.866 395.121 624.147 373.93H672.924C676.56 397.566 697.04 415.727 721.68 415.727C748.889 415.727 771 393.595 771 366.406C771 339.217 748.889 317.086 721.68 317.086ZM324.609 275.289C305.717 275.289 290.336 259.908 290.336 241.016C290.336 222.123 305.717 206.742 324.609 206.742C343.502 206.742 358.883 222.123 358.883 241.016C358.883 259.908 343.502 275.289 324.609 275.289ZM178.32 567.867C159.428 567.867 144.047 552.507 144.047 533.594C144.047 514.681 159.428 499.32 178.32 499.32C197.213 499.32 212.594 514.702 212.594 533.594C212.594 552.486 197.213 567.867 178.32 567.867ZM575.391 624.711C594.283 624.711 609.664 640.071 609.664 658.984C609.664 677.897 594.304 693.258 575.391 693.258C556.478 693.258 541.117 677.897 541.117 658.984C541.117 640.071 556.498 624.711 575.391 624.711ZM541.117 178.32C541.117 159.428 556.478 144.047 575.391 144.047C594.304 144.047 609.664 159.428 609.664 178.32C609.664 197.213 594.283 212.594 575.391 212.594C556.498 212.594 541.117 197.213 541.117 178.32ZM450 269.438C468.892 269.438 484.273 284.819 484.273 303.711C484.273 322.603 468.913 337.984 450 337.984C431.087 337.984 415.727 322.603 415.727 303.711C415.727 284.819 431.108 269.438 450 269.438ZM484.273 450C484.273 468.892 468.913 484.273 450 484.273C431.087 484.273 415.727 468.913 415.727 450C415.727 431.087 431.108 415.727 450 415.727C468.892 415.727 484.273 431.108 484.273 450ZM373.93 366.406C373.93 361.161 373.094 356.082 371.589 351.338L409.812 332.237C417.378 342.875 429.039 350.398 442.497 352.446V401.244C418.861 404.88 400.701 425.361 400.701 450C400.701 457.419 402.352 464.462 405.298 470.794L360.868 500.407C353.47 492.319 343.481 486.781 332.154 485.026V415.141C355.769 411.526 373.93 391.046 373.93 366.406ZM290.336 366.406C290.336 347.514 305.717 332.133 324.609 332.133C343.502 332.133 358.883 347.514 358.883 366.406C358.883 385.298 343.502 400.68 324.609 400.68C305.717 400.68 290.336 385.298 290.336 366.406ZM358.883 721.68C358.883 740.572 343.502 755.953 324.609 755.953C305.717 755.953 290.336 740.572 290.336 721.68C290.336 702.788 305.717 687.406 324.609 687.406C343.502 687.406 358.883 702.788 358.883 721.68ZM324.609 567.867C305.717 567.867 290.336 552.507 290.336 533.594C290.336 514.681 305.717 499.32 324.609 499.32C343.502 499.32 358.883 514.681 358.883 533.594C358.883 552.507 343.502 567.867 324.609 567.867ZM450 630.562C431.108 630.562 415.727 615.202 415.727 596.289C415.727 577.376 431.108 562.016 450 562.016C468.892 562.016 484.273 577.376 484.273 596.289C484.273 615.202 468.892 630.562 450 630.562ZM528.432 548.662L490.229 567.784C481.264 555.182 466.572 546.969 450 546.969C433.428 546.969 418.736 555.203 409.791 567.763L371.359 548.557C372.885 543.813 373.93 538.839 373.93 533.594C373.93 526.175 372.174 519.216 369.228 512.904L413.637 483.291C422.665 493.155 435.622 499.341 450 499.341C464.378 499.341 477.356 493.134 486.363 483.291L530.647 512.821C527.7 519.132 526.049 526.196 526.049 533.594C526.07 538.839 526.906 543.918 528.432 548.662ZM494.744 470.773C497.69 464.462 499.341 457.419 499.341 450C499.341 425.361 481.18 404.88 457.544 401.244V352.446C471.003 350.377 482.685 342.854 490.25 332.216L528.453 351.318C526.906 356.082 526.07 361.161 526.07 366.406C526.07 391.046 544.231 411.526 567.867 415.162V484.838C556.54 486.593 546.467 492.215 539.027 500.303L494.744 470.773ZM609.664 533.594C609.664 552.486 594.304 567.867 575.391 567.867C556.478 567.867 541.117 552.507 541.117 533.594C541.117 514.681 556.478 499.32 575.391 499.32C594.304 499.32 609.664 514.702 609.664 533.594ZM575.391 400.68C556.498 400.68 541.117 385.298 541.117 366.406C541.117 347.514 556.478 332.133 575.391 332.133C594.304 332.133 609.664 347.514 609.664 366.406C609.664 385.298 594.283 400.68 575.391 400.68ZM721.68 400.68C702.788 400.68 687.406 385.298 687.406 366.406C687.406 347.514 702.767 332.133 721.68 332.133C740.593 332.133 755.953 347.514 755.953 366.406C755.953 385.298 740.572 400.68 721.68 400.68Z"/>
</mask>
<path d="M721.68 317.086C697.04 317.086 676.56 335.247 672.924 358.883H624.147C620.887 337.692 604.105 320.91 582.914 317.65V227.076C606.55 223.44 624.711 202.96 624.711 178.32C624.711 151.131 602.58 129 575.391 129C548.202 129 526.07 151.131 526.07 178.32C526.07 202.96 544.231 223.44 567.867 227.076V317.671C554.409 319.74 542.747 327.263 535.182 337.901L496.98 318.8C498.484 314.035 499.32 308.956 499.32 303.711C499.32 276.522 477.189 254.391 450 254.391C433.428 254.391 418.736 262.604 409.791 275.185L371.589 256.083C373.094 251.339 373.93 246.261 373.93 241.016C373.93 213.827 351.798 191.695 324.609 191.695C297.421 191.695 275.289 213.827 275.289 241.016C275.289 268.204 297.421 290.336 324.609 290.336C341.182 290.336 355.894 282.102 364.818 269.542L403.041 288.643C401.516 293.387 400.68 298.465 400.68 303.711C400.68 308.956 401.516 314.035 403.041 318.8L364.839 337.901C355.894 325.32 341.182 317.086 324.609 317.086C297.421 317.086 275.289 339.217 275.289 366.406C275.289 391.046 293.45 411.526 317.086 415.162V485.047C295.937 488.328 279.322 504.942 276.041 526.091H227.076C223.44 502.455 202.96 484.294 178.32 484.294C151.131 484.294 129 506.426 129 533.615C129 560.804 151.131 582.914 178.32 582.914C202.96 582.914 223.44 564.753 227.076 541.117H276.062C279.343 562.266 295.958 578.881 317.107 582.162V672.924C293.471 676.56 275.31 697.04 275.31 721.68C275.31 748.889 297.441 771 324.63 771C351.819 771 373.951 748.869 373.951 721.68C373.951 697.04 355.79 676.56 332.154 672.924V582.162C345.571 580.093 357.211 572.695 364.755 562.078L403.062 581.221C401.516 585.965 400.68 591.044 400.68 596.289C400.68 623.499 422.811 645.609 450 645.609C466.572 645.609 481.264 637.375 490.229 624.795L528.432 643.917C526.906 648.681 526.07 653.739 526.07 658.984C526.07 686.194 548.202 708.305 575.391 708.305C602.58 708.305 624.711 686.173 624.711 658.984C624.711 631.796 602.58 609.664 575.391 609.664C558.818 609.664 544.127 617.898 535.161 630.479L496.959 611.378C498.484 606.613 499.32 601.535 499.32 596.289C499.32 591.044 498.484 585.965 496.959 581.221L535.161 562.099C544.127 574.701 558.818 582.914 575.391 582.914C602.6 582.914 624.711 560.783 624.711 533.594C624.711 508.955 606.55 488.474 582.914 484.838V415.162C604.105 411.902 620.866 395.121 624.147 373.93H672.924C676.56 397.566 697.04 415.727 721.68 415.727C748.889 415.727 771 393.595 771 366.406C771 339.217 748.889 317.086 721.68 317.086ZM324.609 275.289C305.717 275.289 290.336 259.908 290.336 241.016C290.336 222.123 305.717 206.742 324.609 206.742C343.502 206.742 358.883 222.123 358.883 241.016C358.883 259.908 343.502 275.289 324.609 275.289ZM178.32 567.867C159.428 567.867 144.047 552.507 144.047 533.594C144.047 514.681 159.428 499.32 178.32 499.32C197.213 499.32 212.594 514.702 212.594 533.594C212.594 552.486 197.213 567.867 178.32 567.867ZM575.391 624.711C594.283 624.711 609.664 640.071 609.664 658.984C609.664 677.897 594.304 693.258 575.391 693.258C556.478 693.258 541.117 677.897 541.117 658.984C541.117 640.071 556.498 624.711 575.391 624.711ZM541.117 178.32C541.117 159.428 556.478 144.047 575.391 144.047C594.304 144.047 609.664 159.428 609.664 178.32C609.664 197.213 594.283 212.594 575.391 212.594C556.498 212.594 541.117 197.213 541.117 178.32ZM450 269.438C468.892 269.438 484.273 284.819 484.273 303.711C484.273 322.603 468.913 337.984 450 337.984C431.087 337.984 415.727 322.603 415.727 303.711C415.727 284.819 431.108 269.438 450 269.438ZM484.273 450C484.273 468.892 468.913 484.273 450 484.273C431.087 484.273 415.727 468.913 415.727 450C415.727 431.087 431.108 415.727 450 415.727C468.892 415.727 484.273 431.108 484.273 450ZM373.93 366.406C373.93 361.161 373.094 356.082 371.589 351.338L409.812 332.237C417.378 342.875 429.039 350.398 442.497 352.446V401.244C418.861 404.88 400.701 425.361 400.701 450C400.701 457.419 402.352 464.462 405.298 470.794L360.868 500.407C353.47 492.319 343.481 486.781 332.154 485.026V415.141C355.769 411.526 373.93 391.046 373.93 366.406ZM290.336 366.406C290.336 347.514 305.717 332.133 324.609 332.133C343.502 332.133 358.883 347.514 358.883 366.406C358.883 385.298 343.502 400.68 324.609 400.68C305.717 400.68 290.336 385.298 290.336 366.406ZM358.883 721.68C358.883 740.572 343.502 755.953 324.609 755.953C305.717 755.953 290.336 740.572 290.336 721.68C290.336 702.788 305.717 687.406 324.609 687.406C343.502 687.406 358.883 702.788 358.883 721.68ZM324.609 567.867C305.717 567.867 290.336 552.507 290.336 533.594C290.336 514.681 305.717 499.32 324.609 499.32C343.502 499.32 358.883 514.681 358.883 533.594C358.883 552.507 343.502 567.867 324.609 567.867ZM450 630.562C431.108 630.562 415.727 615.202 415.727 596.289C415.727 577.376 431.108 562.016 450 562.016C468.892 562.016 484.273 577.376 484.273 596.289C484.273 615.202 468.892 630.562 450 630.562ZM528.432 548.662L490.229 567.784C481.264 555.182 466.572 546.969 450 546.969C433.428 546.969 418.736 555.203 409.791 567.763L371.359 548.557C372.885 543.813 373.93 538.839 373.93 533.594C373.93 526.175 372.174 519.216 369.228 512.904L413.637 483.291C422.665 493.155 435.622 499.341 450 499.341C464.378 499.341 477.356 493.134 486.363 483.291L530.647 512.821C527.7 519.132 526.049 526.196 526.049 533.594C526.07 538.839 526.906 543.918 528.432 548.662ZM494.744 470.773C497.69 464.462 499.341 457.419 499.341 450C499.341 425.361 481.18 404.88 457.544 401.244V352.446C471.003 350.377 482.685 342.854 490.25 332.216L528.453 351.318C526.906 356.082 526.07 361.161 526.07 366.406C526.07 391.046 544.231 411.526 567.867 415.162V484.838C556.54 486.593 546.467 492.215 539.027 500.303L494.744 470.773ZM609.664 533.594C609.664 552.486 594.304 567.867 575.391 567.867C556.478 567.867 541.117 552.507 541.117 533.594C541.117 514.681 556.478 499.32 575.391 499.32C594.304 499.32 609.664 514.702 609.664 533.594ZM575.391 400.68C556.498 400.68 541.117 385.298 541.117 366.406C541.117 347.514 556.478 332.133 575.391 332.133C594.304 332.133 609.664 347.514 609.664 366.406C609.664 385.298 594.283 400.68 575.391 400.68ZM721.68 400.68C702.788 400.68 687.406 385.298 687.406 366.406C687.406 347.514 702.767 332.133 721.68 332.133C740.593 332.133 755.953 347.514 755.953 366.406C755.953 385.298 740.572 400.68 721.68 400.68Z" fill="#198754"/>
<path d="M721.68 317.086C697.04 317.086 676.56 335.247 672.924 358.883H624.147C620.887 337.692 604.105 320.91 582.914 317.65V227.076C606.55 223.44 624.711 202.96 624.711 178.32C624.711 151.131 602.58 129 575.391 129C548.202 129 526.07 151.131 526.07 178.32C526.07 202.96 544.231 223.44 567.867 227.076V317.671C554.409 319.74 542.747 327.263 535.182 337.901L496.98 318.8C498.484 314.035 499.32 308.956 499.32 303.711C499.32 276.522 477.189 254.391 450 254.391C433.428 254.391 418.736 262.604 409.791 275.185L371.589 256.083C373.094 251.339 373.93 246.261 373.93 241.016C373.93 213.827 351.798 191.695 324.609 191.695C297.421 191.695 275.289 213.827 275.289 241.016C275.289 268.204 297.421 290.336 324.609 290.336C341.182 290.336 355.894 282.102 364.818 269.542L403.041 288.643C401.516 293.387 400.68 298.465 400.68 303.711C400.68 308.956 401.516 314.035 403.041 318.8L364.839 337.901C355.894 325.32 341.182 317.086 324.609 317.086C297.421 317.086 275.289 339.217 275.289 366.406C275.289 391.046 293.45 411.526 317.086 415.162V485.047C295.937 488.328 279.322 504.942 276.041 526.091H227.076C223.44 502.455 202.96 484.294 178.32 484.294C151.131 484.294 129 506.426 129 533.615C129 560.804 151.131 582.914 178.32 582.914C202.96 582.914 223.44 564.753 227.076 541.117H276.062C279.343 562.266 295.958 578.881 317.107 582.162V672.924C293.471 676.56 275.31 697.04 275.31 721.68C275.31 748.889 297.441 771 324.63 771C351.819 771 373.951 748.869 373.951 721.68C373.951 697.04 355.79 676.56 332.154 672.924V582.162C345.571 580.093 357.211 572.695 364.755 562.078L403.062 581.221C401.516 585.965 400.68 591.044 400.68 596.289C400.68 623.499 422.811 645.609 450 645.609C466.572 645.609 481.264 637.375 490.229 624.795L528.432 643.917C526.906 648.681 526.07 653.739 526.07 658.984C526.07 686.194 548.202 708.305 575.391 708.305C602.58 708.305 624.711 686.173 624.711 658.984C624.711 631.796 602.58 609.664 575.391 609.664C558.818 609.664 544.127 617.898 535.161 630.479L496.959 611.378C498.484 606.613 499.32 601.535 499.32 596.289C499.32 591.044 498.484 585.965 496.959 581.221L535.161 562.099C544.127 574.701 558.818 582.914 575.391 582.914C602.6 582.914 624.711 560.783 624.711 533.594C624.711 508.955 606.55 488.474 582.914 484.838V415.162C604.105 411.902 620.866 395.121 624.147 373.93H672.924C676.56 397.566 697.04 415.727 721.68 415.727C748.889 415.727 771 393.595 771 366.406C771 339.217 748.889 317.086 721.68 317.086ZM324.609 275.289C305.717 275.289 290.336 259.908 290.336 241.016C290.336 222.123 305.717 206.742 324.609 206.742C343.502 206.742 358.883 222.123 358.883 241.016C358.883 259.908 343.502 275.289 324.609 275.289ZM178.32 567.867C159.428 567.867 144.047 552.507 144.047 533.594C144.047 514.681 159.428 499.32 178.32 499.32C197.213 499.32 212.594 514.702 212.594 533.594C212.594 552.486 197.213 567.867 178.32 567.867ZM575.391 624.711C594.283 624.711 609.664 640.071 609.664 658.984C609.664 677.897 594.304 693.258 575.391 693.258C556.478 693.258 541.117 677.897 541.117 658.984C541.117 640.071 556.498 624.711 575.391 624.711ZM541.117 178.32C541.117 159.428 556.478 144.047 575.391 144.047C594.304 144.047 609.664 159.428 609.664 178.32C609.664 197.213 594.283 212.594 575.391 212.594C556.498 212.594 541.117 197.213 541.117 178.32ZM450 269.438C468.892 269.438 484.273 284.819 484.273 303.711C484.273 322.603 468.913 337.984 450 337.984C431.087 337.984 415.727 322.603 415.727 303.711C415.727 284.819 431.108 269.438 450 269.438ZM484.273 450C484.273 468.892 468.913 484.273 450 484.273C431.087 484.273 415.727 468.913 415.727 450C415.727 431.087 431.108 415.727 450 415.727C468.892 415.727 484.273 431.108 484.273 450ZM373.93 366.406C373.93 361.161 373.094 356.082 371.589 351.338L409.812 332.237C417.378 342.875 429.039 350.398 442.497 352.446V401.244C418.861 404.88 400.701 425.361 400.701 450C400.701 457.419 402.352 464.462 405.298 470.794L360.868 500.407C353.47 492.319 343.481 486.781 332.154 485.026V415.141C355.769 411.526 373.93 391.046 373.93 366.406ZM290.336 366.406C290.336 347.514 305.717 332.133 324.609 332.133C343.502 332.133 358.883 347.514 358.883 366.406C358.883 385.298 343.502 400.68 324.609 400.68C305.717 400.68 290.336 385.298 290.336 366.406ZM358.883 721.68C358.883 740.572 343.502 755.953 324.609 755.953C305.717 755.953 290.336 740.572 290.336 721.68C290.336 702.788 305.717 687.406 324.609 687.406C343.502 687.406 358.883 702.788 358.883 721.68ZM324.609 567.867C305.717 567.867 290.336 552.507 290.336 533.594C290.336 514.681 305.717 499.32 324.609 499.32C343.502 499.32 358.883 514.681 358.883 533.594C358.883 552.507 343.502 567.867 324.609 567.867ZM450 630.562C431.108 630.562 415.727 615.202 415.727 596.289C415.727 577.376 431.108 562.016 450 562.016C468.892 562.016 484.273 577.376 484.273 596.289C484.273 615.202 468.892 630.562 450 630.562ZM528.432 548.662L490.229 567.784C481.264 555.182 466.572 546.969 450 546.969C433.428 546.969 418.736 555.203 409.791 567.763L371.359 548.557C372.885 543.813 373.93 538.839 373.93 533.594C373.93 526.175 372.174 519.216 369.228 512.904L413.637 483.291C422.665 493.155 435.622 499.341 450 499.341C464.378 499.341 477.356 493.134 486.363 483.291L530.647 512.821C527.7 519.132 526.049 526.196 526.049 533.594C526.07 538.839 526.906 543.918 528.432 548.662ZM494.744 470.773C497.69 464.462 499.341 457.419 499.341 450C499.341 425.361 481.18 404.88 457.544 401.244V352.446C471.003 350.377 482.685 342.854 490.25 332.216L528.453 351.318C526.906 356.082 526.07 361.161 526.07 366.406C526.07 391.046 544.231 411.526 567.867 415.162V484.838C556.54 486.593 546.467 492.215 539.027 500.303L494.744 470.773ZM609.664 533.594C609.664 552.486 594.304 567.867 575.391 567.867C556.478 567.867 541.117 552.507 541.117 533.594C541.117 514.681 556.478 499.32 575.391 499.32C594.304 499.32 609.664 514.702 609.664 533.594ZM575.391 400.68C556.498 400.68 541.117 385.298 541.117 366.406C541.117 347.514 556.478 332.133 575.391 332.133C594.304 332.133 609.664 347.514 609.664 366.406C609.664 385.298 594.283 400.68 575.391 400.68ZM721.68 400.68C702.788 400.68 687.406 385.298 687.406 366.406C687.406 347.514 702.767 332.133 721.68 332.133C740.593 332.133 755.953 347.514 755.953 366.406C755.953 385.298 740.572 400.68 721.68 400.68Z" stroke="#198754" stroke-width="12" mask="url(#path-1-outside-1_2205_224)"/>
</svg>
