<svg width="900" height="900" viewBox="0 0 900 900" fill="none" xmlns="http://www.w3.org/2000/svg">
<path d="M678 136H439.667H223" stroke="#198754" stroke-width="26.6667" stroke-linecap="round" stroke-linejoin="round"/>
<path d="M678 136L580.5 396" stroke="#198754" stroke-width="26.6667" stroke-linecap="round" stroke-linejoin="round"/>
<path d="M223 136L320.5 396" stroke="#198754" stroke-width="26.6667" stroke-linecap="round" stroke-linejoin="round"/>
<path d="M450.5 764.333C564.179 764.333 656.333 672.179 656.333 558.5C656.333 444.821 564.179 352.667 450.5 352.667C336.821 352.667 244.667 444.821 244.667 558.5C244.667 672.179 336.821 764.333 450.5 764.333Z" stroke="#198754" stroke-width="26.6667" stroke-linecap="round" stroke-linejoin="round"/>
<path d="M385.5 136L407.167 352.667" stroke="#198754" stroke-width="26.6667" stroke-linecap="round" stroke-linejoin="round"/>
<path d="M515.5 136L493.833 352.667" stroke="#198754" stroke-width="26.6667" stroke-linecap="round" stroke-linejoin="round"/>
<path d="M461.117 457.75L480.833 513.867C481.523 516.015 482.841 517.908 484.618 519.298C486.395 520.689 488.549 521.514 490.8 521.667L548 524.05C550.58 523.966 553.116 524.737 555.212 526.244C557.308 527.751 558.847 529.909 559.589 532.382C560.33 534.855 560.234 537.503 559.313 539.915C558.393 542.327 556.701 544.367 554.5 545.717L509.65 582.767C507.94 584.277 506.674 586.225 505.987 588.401C505.3 590.576 505.218 592.898 505.75 595.117L521.35 652.75C522.017 654.988 521.985 657.376 521.26 659.595C520.534 661.815 519.149 663.76 517.29 665.173C515.43 666.585 513.185 667.397 510.852 667.5C508.519 667.603 506.21 666.993 504.233 665.75L456.783 632.383C454.937 631.107 452.745 630.423 450.5 630.423C448.255 630.423 446.063 631.107 444.217 632.383L396.767 664.883C394.79 666.126 392.481 666.736 390.148 666.633C387.816 666.53 385.57 665.718 383.71 664.306C381.851 662.894 380.466 660.948 379.741 658.729C379.015 656.509 378.984 654.121 379.65 651.883L395.25 594.25C395.782 592.031 395.701 589.71 395.014 587.534C394.327 585.358 393.06 583.411 391.35 581.9L346.5 544.85C344.3 543.5 342.607 541.46 341.687 539.048C340.767 536.636 340.67 533.988 341.412 531.515C342.153 529.043 343.692 526.885 345.788 525.378C347.884 523.871 350.42 523.099 353 523.183L410.2 520.8C412.451 520.648 414.605 519.822 416.382 518.432C418.159 517.041 419.478 515.149 420.167 513L439.883 456.883C440.748 454.718 442.263 452.874 444.219 451.606C446.175 450.338 448.477 449.708 450.807 449.803C453.136 449.898 455.379 450.713 457.226 452.137C459.072 453.56 460.432 455.521 461.117 457.75Z" stroke="#198754" stroke-width="26.6667" stroke-linecap="round" stroke-linejoin="round"/>
</svg>
