<svg width="900" height="900" viewBox="0 0 900 900" fill="none" xmlns="http://www.w3.org/2000/svg">
<path d="M657.933 185.625C657.267 182.375 655.96 179.29 654.089 176.55C647.341 166.362 638.603 157.644 628.399 150.921C618.196 144.197 606.738 139.606 594.714 137.425C582.944 135.279 570.86 135.569 559.207 138.278C547.554 140.987 536.58 146.057 526.964 153.175L472.964 192.675C466.264 197.609 458.16 200.27 449.839 200.27C441.518 200.27 433.415 197.609 426.714 192.675L372.714 153.175C358.75 142.976 342.124 137.054 324.857 136.128C307.59 135.202 290.426 139.312 275.451 147.958C260.476 156.604 248.335 169.414 240.504 184.831C232.673 200.247 229.489 217.607 231.339 234.8L238.589 301.3C239.52 309.564 237.776 317.908 233.614 325.108C229.452 332.307 223.09 337.983 215.464 341.3L154.339 368.3C138.48 375.253 124.99 386.675 115.517 401.171C106.045 415.667 101 432.608 101 449.925C101 467.241 106.045 484.182 115.517 498.678C124.99 513.174 138.48 524.597 154.339 531.55L215.464 558.55C223.09 561.867 229.452 567.542 233.614 574.741C237.776 581.941 239.52 590.286 238.589 598.55L231.339 665.05C229.489 682.242 232.673 699.602 240.504 715.019C248.335 730.435 260.476 743.245 275.451 751.891C290.426 760.537 307.59 764.647 324.857 763.721C342.124 762.795 358.75 756.873 372.714 746.675L426.714 707.175C433.415 702.241 441.518 699.579 449.839 699.579C458.16 699.579 466.264 702.241 472.964 707.175L526.964 746.675C542.175 757.894 560.563 763.98 579.464 764.05C595.141 764.155 610.571 760.147 624.214 752.425C639.33 743.933 651.583 731.141 659.416 715.674C667.25 700.206 670.312 682.76 668.214 665.55L660.964 599.05C660.083 590.776 661.862 582.438 666.043 575.245C670.224 568.052 676.589 562.379 684.214 559.05L745.339 532.05C761.198 525.097 774.689 513.674 784.161 499.178C793.634 484.682 798.678 467.741 798.678 450.425C798.678 433.108 793.634 416.167 784.161 401.671C774.689 387.175 761.198 375.753 745.339 368.8L712.089 354.175" stroke="#198754" stroke-width="33" stroke-linecap="round"/>
<path d="M307.339 401.425L414.964 509.05C417.29 511.389 420.056 513.245 423.102 514.511C426.148 515.777 429.415 516.427 432.714 516.425C436.001 516.394 439.249 515.716 442.273 514.429C445.298 513.143 448.039 511.272 450.339 508.925L785.964 173.3" stroke="#198754" stroke-width="33" stroke-linecap="round"/>
</svg>
