<svg width="900" height="900" viewBox="0 0 900 900" fill="none" xmlns="http://www.w3.org/2000/svg">
<path d="M296.497 392.587C296.497 437.206 312.749 482.391 341.087 516.558C370.886 552.486 409.787 572.275 450.623 572.275C491.453 572.275 530.306 552.498 560.029 516.588C588.273 482.463 604.471 437.296 604.471 392.665V353.355C615.893 304.167 618.289 261.598 618.271 234.448C618.247 199.393 614.434 175.173 610.875 164.197C608.984 158.365 603.314 154.823 597.452 155.391C596.483 155.304 595.491 155.314 594.486 155.457C570.63 158.865 541.364 152.988 510.378 146.765C460.175 136.685 403.456 125.311 360.076 155.386C359.69 155.351 359.3 155.327 358.904 155.327C334.558 155.327 312.942 165.056 298.037 182.721C284.27 199.04 276.688 221.491 276.688 245.94C276.688 285.983 293.721 359.985 296.495 371.771L296.497 392.587ZM540.266 500.232C515.507 530.147 483.67 546.623 450.623 546.623C417.557 546.623 385.669 530.13 360.832 500.183C336.248 470.542 322.15 431.325 322.15 392.588V377.205C322.15 345.48 343.453 302.352 351.539 287.128C466.891 273.947 544.101 305.801 561.629 314.003L578.818 354.506V392.667C578.818 431.424 564.766 470.63 540.266 500.232ZM358.906 180.98C359.836 180.98 360.742 180.876 361.616 180.687C365.14 181.437 368.956 180.717 372.052 178.367C406.637 152.098 456.81 162.172 505.331 171.917C531.297 177.131 556.136 182.117 579.224 182.117C582.421 182.117 585.584 182.021 588.714 181.815C592.579 203.536 595.701 250.295 587.008 308.132L583.386 299.599C582.257 296.941 580.267 294.742 577.734 293.356C574.05 291.34 486.061 244.327 342.86 262.304C338.661 262.517 334.649 264.778 332.389 268.69C331.568 270.111 320.407 289.601 310.745 314.526C306.36 290.771 302.341 264.056 302.341 245.937C302.342 201.067 330.75 180.98 358.906 180.98Z" fill="#198754"/>
<path d="M671.524 600.671C671.248 600.594 670.969 600.527 670.689 600.467L594.374 584.505L574.199 553.912C574.058 553.695 573.907 553.484 573.753 553.277C570.085 548.387 564.5 545.159 558.432 544.422C552.365 543.686 546.168 545.481 541.435 549.353C541.352 549.421 541.268 549.491 541.188 549.56L450.451 627.669L359.713 549.562C359.631 549.493 359.549 549.424 359.467 549.355C354.734 545.483 348.537 543.686 342.47 544.422C336.402 545.159 330.816 548.387 327.149 553.277C326.994 553.484 326.844 553.695 326.703 553.912L306.529 584.505L230.214 600.467C229.933 600.527 229.654 600.594 229.378 600.671C207.188 606.887 188.311 620.645 174.785 640.458C162.446 658.53 155.651 680.348 155.651 701.892V726.008C155.651 747.164 174.49 764.377 197.647 764.377H421.247C421.263 764.377 421.279 764.378 421.295 764.378C421.312 764.378 421.33 764.377 421.348 764.377H479.553C479.571 764.377 479.588 764.378 479.606 764.378C479.622 764.378 479.638 764.377 479.654 764.377H703.254C726.411 764.377 745.25 747.165 745.25 726.008V701.892C745.25 680.347 738.455 658.53 726.116 640.458C712.593 620.647 693.714 606.889 671.524 600.671ZM555.054 571.476L570.978 595.622L507.247 683.25L469.295 645.3L555.054 571.476ZM442.037 713.176H458.865L463.975 738.725H436.927L442.037 713.176ZM463.278 680.496C463.278 684.719 460.704 687.522 459.002 687.522H441.899C440.196 687.522 437.623 684.719 437.623 680.496V675.559L450.45 662.733L463.276 675.559V680.496H463.278ZM345.849 571.476L431.607 645.298L393.655 683.249L329.924 595.621L345.849 571.476ZM181.303 726.008V701.892C181.303 671.634 200.055 635.752 235.902 625.484L308.831 610.23L381.738 710.476C383.944 713.511 387.367 715.426 391.107 715.721C391.442 715.748 391.778 715.759 392.111 715.759C395.499 715.759 398.765 714.417 401.179 712.003L416.137 697.045C416.815 698.299 417.561 699.502 418.381 700.64L410.766 738.722H197.647C188.787 738.724 181.303 732.9 181.303 726.008ZM719.6 726.008C719.6 732.9 712.115 738.724 703.257 738.724H490.137L482.521 700.642C483.342 699.503 484.087 698.301 484.766 697.047L499.723 712.004C502.138 714.419 505.404 715.761 508.791 715.761C509.125 715.761 509.46 715.748 509.795 715.722C513.536 715.429 516.959 713.513 519.165 710.478L592.071 610.232L665 625.486C700.847 635.753 719.6 671.636 719.6 701.894V726.008Z" fill="#198754"/>
<path d="M142.877 416.646C142.877 447.81 153.482 477.055 172.736 498.995C192.279 521.263 218.378 533.527 246.223 533.527C267.1 533.527 287.199 526.559 304.35 513.378C309.966 509.062 311.02 501.008 306.702 495.392C302.384 489.776 294.335 488.721 288.716 493.038C276.09 502.743 261.395 507.874 246.223 507.874C203.382 507.874 168.529 466.949 168.529 416.646V409.108C168.529 388.835 176.913 361.999 181.306 349.323C208.989 346.87 233.709 350.5 253.898 353.482L256.186 353.818C256.821 353.911 257.449 353.956 258.071 353.956C264.328 353.956 269.806 349.372 270.744 342.996C271.777 335.988 266.931 329.47 259.923 328.438L257.645 328.103C234.073 324.62 204.743 320.291 170.483 324.678C170.443 324.683 170.402 324.686 170.362 324.692C170.357 324.692 170.352 324.692 170.347 324.694C170.302 324.699 170.259 324.712 170.214 324.718C169.847 324.769 169.481 324.832 169.121 324.915C168.917 324.962 168.721 325.024 168.523 325.08C168.325 325.137 168.128 325.185 167.934 325.249C167.682 325.332 167.44 325.432 167.197 325.529C167.06 325.586 166.921 325.634 166.784 325.695C166.536 325.805 166.295 325.929 166.057 326.055C165.928 326.123 165.798 326.184 165.672 326.256C165.452 326.379 165.244 326.515 165.032 326.652C164.889 326.745 164.745 326.831 164.606 326.929C164.429 327.054 164.261 327.189 164.093 327.32C163.929 327.449 163.764 327.572 163.607 327.708C163.472 327.824 163.347 327.947 163.219 328.069C163.041 328.236 162.863 328.401 162.694 328.577C162.59 328.688 162.494 328.805 162.393 328.917C162.218 329.116 162.042 329.312 161.878 329.522C161.782 329.644 161.697 329.773 161.606 329.898C161.457 330.105 161.304 330.311 161.166 330.529C161.053 330.707 160.952 330.896 160.847 331.08C160.75 331.253 160.645 331.42 160.554 331.6C160.381 331.941 160.224 332.292 160.081 332.648C160.068 332.679 160.054 332.707 160.041 332.738C160.041 332.74 160.038 332.748 160.036 332.749C160.025 332.78 160.014 332.809 160.002 332.837C159.78 333.41 158.854 335.807 157.535 339.55C156.51 331.394 155.839 323.713 155.839 317.559C155.839 289.836 169.217 277.426 182.476 277.426C183.103 277.426 183.714 277.367 184.317 277.281C184.925 277.369 185.537 277.428 186.154 277.428C188.859 277.428 191.585 276.577 193.903 274.815C205.875 265.721 221.32 262.665 243.975 264.901C251.018 265.604 257.303 260.447 258.001 253.397C258.697 246.349 253.547 240.069 246.497 239.373C229.114 237.656 203.953 237.201 182.058 251.786C151.497 252.033 130.187 279.006 130.187 317.561C130.187 344.574 140.836 393.804 142.877 402.991V416.646Z" fill="#198754"/>
<path d="M129.786 648.968H72.687C68.661 648.968 65.6532 646.56 65.6532 644.405V627.985C65.6532 608.962 77.3527 586.427 99.7206 579.942L146.429 570.171L170.551 604.97C173.042 608.563 177.038 610.49 181.104 610.49C183.624 610.49 186.172 609.748 188.399 608.204C194.221 604.168 195.668 596.177 191.633 590.355L167.609 555.696L174.703 544.938L224.725 582.286C230.403 586.525 238.439 585.358 242.676 579.682C246.915 574.006 245.75 565.969 240.072 561.731L185.17 520.741C181.128 517.558 175.911 516.093 170.794 516.711C165.561 517.346 160.745 520.13 157.581 524.348C157.426 524.555 157.278 524.767 157.136 524.983L144.328 544.404L94.0224 554.927C93.7418 554.986 93.4629 555.053 93.1871 555.13C58.2699 564.911 40 599.185 40 627.985V644.405C40 661.067 54.664 674.621 72.687 674.621H129.786C136.87 674.621 142.613 668.878 142.613 661.795C142.613 654.711 136.87 648.968 129.786 648.968Z" fill="#198754"/>
<path d="M642.593 251.34C661.452 251.717 682.301 255.092 702.466 258.355C717.701 260.819 732.295 263.159 744.967 263.973C744.52 294.346 742.529 321.661 740.268 343.653C740.242 343.634 740.215 343.618 740.189 343.599C739.987 343.451 739.779 343.314 739.569 343.179C739.471 343.116 739.385 343.046 739.285 342.986C739.174 342.919 739.059 342.857 738.947 342.789C738.932 342.781 738.918 342.772 738.902 342.764C713.234 327.304 682.127 318.385 643.809 315.512C636.738 314.976 630.589 320.28 630.059 327.343C629.528 334.407 634.825 340.564 641.89 341.093C674.573 343.544 701.036 350.721 722.646 362.981C725.684 370.147 732.372 388.282 732.372 409.108V416.646C732.372 466.951 697.519 507.874 654.678 507.874C639.505 507.874 624.813 502.743 612.185 493.038C606.568 488.722 598.515 489.776 594.199 495.392C589.883 501.008 590.934 509.06 596.551 513.378C613.701 526.561 633.801 533.527 654.678 533.527C682.524 533.527 708.623 521.263 728.164 498.995C747.419 477.053 758.023 447.809 758.023 416.646V402.784C759.825 393.196 770.415 333.485 770.699 254.566C771.028 253.301 771.172 251.966 771.092 250.59C770.689 243.745 764.983 238.483 758.209 238.533C758.102 238.53 757.996 238.517 757.887 238.517C757.638 238.517 757.396 238.541 757.151 238.554C744.738 239.198 726.194 236.207 706.561 233.03C686.502 229.785 663.767 226.106 643.105 225.694C635.977 225.522 630.166 231.179 630.023 238.26C629.884 245.342 635.512 251.199 642.593 251.34Z" fill="#198754"/>
<path d="M807.717 555.129C807.441 555.052 807.162 554.984 806.881 554.925L756.575 544.402L743.768 524.981C743.625 524.767 743.476 524.555 743.322 524.346C740.159 520.128 735.342 517.345 730.109 516.71C724.99 516.091 719.776 517.555 715.734 520.739L660.831 561.73C655.154 565.967 653.988 574.005 658.227 579.68C662.467 585.358 670.504 586.523 676.178 582.284L726.2 544.936L733.295 555.695L709.269 590.352C705.234 596.174 706.681 604.165 712.503 608.2C714.732 609.744 717.278 610.487 719.798 610.487C723.863 610.487 727.86 608.559 730.351 604.966L754.473 570.168L801.181 579.938C823.548 586.424 835.249 608.96 835.249 627.982V644.402C835.249 646.555 832.241 648.965 828.215 648.965H771.116C764.032 648.965 758.289 654.708 758.289 661.791C758.289 668.875 764.032 674.618 771.116 674.618H828.215C846.238 674.618 860.902 661.064 860.902 644.402V627.982C860.902 599.185 842.632 564.911 807.717 555.129Z" fill="#198754"/>
</svg>
